# xmcd
#
# Track frame offsets:
#	150
#	15796
#	32605
#	52263
#	73457
#	97841
#	119964
#	135674
#	152186
#	172107
#	191438
#	209256
#	230813
#
# Disc length: 3401 seconds
#
# Revision: 3
# Processed by: cddbd v1.5.2PL0 Copyright (c) Steve Scherf et al.
# Submitted via: EasyCDDAExtractor 11.0.0.1
#
DISCID=be0d470d
DTITLE=ΔΗΜΗΤΡΙΑΔΗΣ ΓΙΩΡΓΟΣ - ΑΥΤΟΣ ΠΟΥ ΔΕΝ ΞΕΡΕΙ
DYEAR=2001
DGENRE=ΛΑΪΚΑ
TTITLE0=PAIRNO TOYS DROMOYS
TTITLE1=OLA TA KSEXNO
TTITLE2=AYTOS POY DEN KSEREI
TTITLE3=LADI STH FOTIA
TTITLE4=OSA MOY' XEIS XARISEI
TTITLE5=MIA BOLTA ME TA PODIA STO FEGGARI
TTITLE6=KATI O NTENIGKEN ISOS KSEREI
TTITLE7=MONOS KANO TO BHMA
TTITLE8=TA EIPES OLA
TTITLE9=AN THYMHTHEIS T' ONEIRO MOY
TTITLE10=TO TSIRKO
TTITLE11=TA DIKA MOY KOYRELIA
TTITLE12=TOY PARADEISOY TO KLEIDI
EXTD=
EXTT0=
EXTT1=
EXTT2=
EXTT3=
EXTT4=
EXTT5=
EXTT6=
EXTT7=
EXTT8=
EXTT9=
EXTT10=
EXTT11=
EXTT12=
PLAYORDER=
